<svg id="GoLe-M-black-text" data-name="GoLe-M-black-text" xmlns="http://www.w3.org/2000/svg" viewBox="0 0 300 300">
  <g>
    <path d="M113.1,141.8a1.8,1.8,0,0,0-1.5.9,14.9,14.9,0,0,1-3.4,4.4,14.1,14.1,0,0,1-4.8,3,18.1,18.1,0,0,0,.4-4,23.1,23.1,0,0,0-1.3-7.7,15.2,15.2,0,0,0-3.9-6.4,14.9,14.9,0,0,0-6.2-4.2H90.9a10.4,10.4,0,0,0-9.6,7,2.6,2.6,0,0,1-.1.7l-.2.6a19.6,19.6,0,0,0-4.4,6.6,24,24,0,0,0-2.2,7.8,98.4,98.4,0,0,1-8.2,7.6,53.7,53.7,0,0,0,1.1-10.6,46.8,46.8,0,0,0-.7-8.4,4.6,4.6,0,0,0-1.5-2.6,4.3,4.3,0,0,0-7,1.5l-1.1.5a12.2,12.2,0,0,0-4-5,14.8,14.8,0,0,0-5.4-2.5,24.5,24.5,0,0,0-3.8-.4,15.2,15.2,0,0,0-8.8,2.7,26.8,26.8,0,0,0-8.3,9.4,26.5,26.5,0,0,0-4.1,12.2,10.9,10.9,0,0,0,1.3,7.6,11.8,11.8,0,0,0,3.8,4.4c5.5,3.4,12,1.1,19.5-6.8a76.7,76.7,0,0,0,6.4-7.5,48,48,0,0,0-1.1,6c-.8,3.5-1.4,7-1.9,10.6l-10.7,6.7a160.4,160.4,0,0,0-17.5,12.8,37.1,37.1,0,0,0-7.5,7.4A43.2,43.2,0,0,0,9.4,205c-2.2,6.8-.9,12.5,4.1,17s10.8,6,17.6,4.3,12-5.4,16.7-11.4a73.8,73.8,0,0,0,11.1-20.6,178.5,178.5,0,0,0,5.6-25.1,7.1,7.1,0,0,1,.1-1.4c.1-.5.2-1,.3-1.7a5.4,5.4,0,0,1,.4-1.5,104.2,104.2,0,0,0,9.5-8.1,20.7,20.7,0,0,0,1.8,5.3,11.6,11.6,0,0,0,4.5,4.6,12.4,12.4,0,0,0,6.4,1.9,11.5,11.5,0,0,0,5.6-1.5,17.9,17.9,0,0,0,5.8-5.8,22.2,22.2,0,0,0,3.6-6.8,16.5,16.5,0,0,0,7-3.7,19,19,0,0,0,5.2-6,1.7,1.7,0,0,0-.1-1.8A1.8,1.8,0,0,0,113.1,141.8ZM46.5,152.4a37.8,37.8,0,0,1-8.5,7,6.4,6.4,0,0,1-3,1.1c-1,0-1.6-.2-1.7-.6v-1.1a67,67,0,0,1,2.8-7.9q4.2-8.6,9-8.1a10.2,10.2,0,0,1,5.7,4v.4l.2.3C49,149.8,47.5,151.4,46.5,152.4Zm2.4,26.3c-1.1,5.6-2.1,9.8-2.8,12.7a81.4,81.4,0,0,1-4,11,37.4,37.4,0,0,1-6.7,10.9c-5.2,5.6-10.3,7.7-15.4,6a7.2,7.2,0,0,1-4.9-4.2,10.3,10.3,0,0,1-.6-6.5,19.9,19.9,0,0,1,2.6-6.2c.8-1.2,1.6-2.4,2.5-3.5l3-3.2,3-2.9a44.9,44.9,0,0,1,3.5-2.9l3.3-2.5,3.7-2.7,3.5-2.2,3.7-2.4a25.9,25.9,0,0,1,3.5-2.3l2.5-1.5C49.2,176.9,49,177.7,48.9,178.7Zm46.2-19.9-.8.4a8.8,8.8,0,0,1-4,1.4h-.5a2.8,2.8,0,0,1-2-.8h-.3a4.4,4.4,0,0,1-.9-2.7h0a14.9,14.9,0,0,1-.2-2.1,14,14,0,0,1,.6-4.1l2.4,1.5,2.8,1.4,3,.7.9.2,1.3.2h.8A13.8,13.8,0,0,1,95.1,158.8Zm4.9-9.4a3,3,0,0,1-.2,1,1.1,1.1,0,0,0-.1.5H98.3a13.3,13.3,0,0,1-5.5-1.3,14.1,14.1,0,0,1-4.8-3,33.3,33.3,0,0,1,4.2-7,11,11,0,0,0,1.4-2.1,4.9,4.9,0,0,0,.1-1.2,3.8,3.8,0,0,0-1.8-3.4,5.3,5.3,0,0,0-3-.9,5.8,5.8,0,0,0-1.9.3c.3-.7,1.3-1.2,3-1.4h.6a6.6,6.6,0,0,1,2.7.6,12,12,0,0,1,4.6,4.9,19.3,19.3,0,0,1,2.4,9.4A21.9,21.9,0,0,1,100,149.4Z"/>
    <path d="M175.9,165.5c-4.1.2-9.3,1.9-15.8,5.2a104.9,104.9,0,0,1-12.5,5.8,10.6,10.6,0,0,1-7.6.4c-2.4-.8-3.7-2.8-4-5.9a17,17,0,0,1,.4-4.9,34.8,34.8,0,0,1,1.1-4.6c.5-1.3,1.1-3,1.9-5l1.7-4.3c7.2-21.6,12.3-35.5,15.3-41.5,1.5-3.2,4.4-8.7,8.8-16.4l2.4-4a36.9,36.9,0,0,0,2.6-4.6,25.5,25.5,0,0,0,1.7-4.1,14.9,14.9,0,0,0,.9-4.7,3.8,3.8,0,0,0-3.9-3.9h-1a21.1,21.1,0,0,0-5.8,3.9,42.6,42.6,0,0,0-4.4,4.9c-1.1,1.4-2.4,3.4-4.1,5.9a6.6,6.6,0,0,0-.6,1.2,211.8,211.8,0,0,0-10.8,19q-8.4,16.5-16.2,49c-2.2,9.4-1.8,16.5,1.2,21.1a14.8,14.8,0,0,0,5.4,5.1,14.4,14.4,0,0,0,7.1,2.1h1.9a26.1,26.1,0,0,0,8.8-2.7,68.4,68.4,0,0,0,8.2-4.7,43.9,43.9,0,0,1,8.1-4.4,24,24,0,0,1,9.1-1.9,2.9,2.9,0,0,0,2.6-1.6,3.4,3.4,0,0,0,0-3.1A2.4,2.4,0,0,0,175.9,165.5Z"/>
    <path d="M195.4,131.7h-.3a1.1,1.1,0,0,0-1,.4.9.9,0,0,0-.3.6,6.1,6.1,0,0,0-.5,1.2,31.4,31.4,0,0,1-8.6,13.4,16.4,16.4,0,0,1-4.8,3.4,14.8,14.8,0,0,1-5.8,1.4h-.3a4.8,4.8,0,0,1-3.1-1.5,4.4,4.4,0,0,1-1-2.8v-2.6a10.3,10.3,0,0,1,.7-3.4,21.9,21.9,0,0,0,6.8-2.7,19.9,19.9,0,0,0,5.7-4.7,9.6,9.6,0,0,0,2.5-6.6v-.6a8.5,8.5,0,0,0-2.3-4.1,7.9,7.9,0,0,0-4.4-2.1l-1.8-.2a14.2,14.2,0,0,0-7.4,2.2,23.4,23.4,0,0,0-7.3,7.4,21.8,21.8,0,0,0-3.7,9.6,14.9,14.9,0,0,0-.2,2.1,16.5,16.5,0,0,0,1.7,7.2,13.3,13.3,0,0,0,5.3,5.5,13.4,13.4,0,0,0,7.2,2.2h1.2a17.7,17.7,0,0,0,8.6-3.6,32.8,32.8,0,0,0,6.6-6.8,48.9,48.9,0,0,0,7-12.4C196.4,132.8,196.2,132,195.4,131.7Zm-22.6,5.1a14.8,14.8,0,0,1,2.2-2.9l2.4-1.9,1.2-.9.6-.5.6-.3v.3a1.3,1.3,0,0,1,.1.6,1.1,1.1,0,0,1-.1.5,6.5,6.5,0,0,1-1.7,2.7,14.2,14.2,0,0,1-5.8,3.4A2.9,2.9,0,0,1,172.8,136.8Z"/>
    <path d="M221.1,78.4c-4.9,0-9,4.2-11.2,9.5-1.6,3.7-1.3,6.9.4,8.4,5.4,4.9-9.3,14.1-1.4,14.1,4.2,0,11.8-10.9,15.1-17S226.1,78.4,221.1,78.4Z"/>
    <path d="M288.9,204.2c-1.1-4.7-1.9-8.1-2.3-10.4a152.3,152.3,0,0,1-2.3-20.2,108,108,0,0,1,1.4-21.3,25.7,25.7,0,0,1,.6-3.5c1.3-3.6,2.4-6.8,3.3-9.7a6.4,6.4,0,0,0,.2-.9c.6-1.9,1.1-3.5,1.4-4.7a15,15,0,0,0,.4-4.5,9.9,9.9,0,0,0-1.1-4.5,3.3,3.3,0,0,0-1.3-1.6,4.9,4.9,0,0,0-2.5-.6,6.6,6.6,0,0,0-2.6.7l-2.2,2.3a8.9,8.9,0,0,0-1.8,2.8c-.6,1.3-1.1,2.3-1.4,3.1s-.7,1.8-1.1,3.1-.8,2.3-1,2.9c-1.9,4.7-4.1,9.8-6.5,15.3l-7.3,14.8-1.9,4.1-1.6,3.4c-1.4,3.3-2.7,4.9-4.1,4.7s-2.3-1.9-3.9-5.5a54.1,54.1,0,0,1-2.7-7.7,87.8,87.8,0,0,1-1.9-15.1c-.1-3.7-.2-7.7-.2-12s2-8.3,2.6-11.9a19.5,19.5,0,0,0,.6-2.8c.3-1.7.6-2.9.7-3.6s.2-1.9.3-3.5a10.5,10.5,0,0,0-.2-3.7,9.9,9.9,0,0,0-1.2-2.9,5.9,5.9,0,0,0-2.3-2.4,4.9,4.9,0,0,0-2.2-.6,3.1,3.1,0,0,0-1.9.3l-1.7,1.1a7.2,7.2,0,0,0-1.4,1.9c-.5.9-.8,1.6-1.2,2.2a14.5,14.5,0,0,0-1,2.4c-.4.9-.6,1.6-.8,2.1a16.7,16.7,0,0,0-.6,2c-.2.8-.4,1.2-.3,1.4-.5,1.7-1.3,4.9-2.4,9.7s-2.1,8.5-2.8,11.2c-2.2,8.3-4.3,15.3-6.2,21a165.9,165.9,0,0,1-8.7,19.2,3.9,3.9,0,0,0,0,2.4,4.1,4.1,0,0,0,1.5,2.1,5.1,5.1,0,0,0,2.8.7,7.7,7.7,0,0,0,2.7-.7c4.9-3,9.5-8.8,13.7-17.6a124.7,124.7,0,0,0,7.2-20.2v1.7a98.2,98.2,0,0,0,1.1,14,91.6,91.6,0,0,0,2.8,13.9,8.4,8.4,0,0,0,4,5.5,11.1,11.1,0,0,0,4.7,1.7,17.6,17.6,0,0,0,6.3-1.4,15.7,15.7,0,0,0,5.1-3.5l.7-.9,1.3-1.5a74.2,74.2,0,0,0,8.4-12c-.2,2.3-.4,4.5-.5,6.6-1.1,18.3.9,32.8,6.1,43.6A3.7,3.7,0,0,0,285,218a4.8,4.8,0,0,0,2.9.6,4.1,4.1,0,0,0,2.6-1.3,3.1,3.1,0,0,0,.7-2.5C290.8,212.4,290.1,208.9,288.9,204.2Z"/>
  </g>
</svg>
