<svg id="GoLe-M-black-circle" data-name="GoLe-M-black-circle" xmlns="http://www.w3.org/2000/svg" viewBox="0 0 300 300">
  <g>
    <path d="M67.5,154.2V154c-4.2,5.4-7,9.8-8.3,13.1s-1.6,5.2-1.2,7.1a5.8,5.8,0,0,0,3.6,4.2c2.1,1,3.5,1.2,4.5.6s1.5-2,2-4.1c1-4.5.8-11.3-.6-20.5Z"/>
    <path d="M142.2,108.3a6.1,6.1,0,0,0,1.4-2.4h-.1a3.7,3.7,0,0,0-1.6-.6h-.1a9.9,9.9,0,0,0-.9,1.5,20.2,20.2,0,0,0-1.4,4.2A16.8,16.8,0,0,0,142.2,108.3Z"/>
    <path d="M55.4,123.9a13.9,13.9,0,0,0-4.3,2.6,5.2,5.2,0,0,0-1.5,4.3c.1,1.6.6,2.6,1.4,3.1s1.5.3,2.7-.2a9,9,0,0,0,3.7-3.8,17.5,17.5,0,0,0,2.3-7.4l-3.1,1Z"/>
    <path d="M103.1,129.5a12.1,12.1,0,0,0-2.6-4.2,6.6,6.6,0,0,0-1.6-1.1c-.6-.2-.9-.3-1.2-.2l-.3.2v.3a3.1,3.1,0,0,0,.4,1.7Q99,128.6,103.1,129.5Z"/>
    <path d="M156.1,144l.2-.2-1.3-.3h-.4a2.4,2.4,0,0,0-1.3.6,9.5,9.5,0,0,0-2.1,2.4,10.7,10.7,0,0,0-.7,1.5,31.9,31.9,0,0,0,5.4-3.7Z"/>
    <path d="M94.2,128.3l-.4-1a25.4,25.4,0,0,0-.6,5.2,9.6,9.6,0,0,0,1.1,5.5,4.7,4.7,0,0,0,1.4,1.4,5.4,5.4,0,0,0,2.5.4,8.9,8.9,0,0,0,5-4.2l.6-1.9a13.7,13.7,0,0,1-5.9-1.9A11.3,11.3,0,0,1,94.2,128.3Z"/>
    <path d="M265.3,157.2c-5.4.2-9.3-1.2-11.9-4s-3.1-6.1-3-11.4h0c.2-2.7.2-4.5-.2-5.4V136a10.8,10.8,0,0,0-2.1,1.4,43.8,43.8,0,0,0-3.6,3.7,147.6,147.6,0,0,0-10.8,15.6,2,2,0,0,1-1.8,1,2.2,2.2,0,0,1-1.4-.6,2,2,0,0,1-.6-1.4v-.4a117.4,117.4,0,0,0,1.4-12.4,18.4,18.4,0,0,0-.3-4,13.5,13.5,0,0,0-2.7,3,85,85,0,0,0-7.2,11.8l-2.7,5.1a1.1,1.1,0,0,1-.3.7,1.6,1.6,0,0,1-.3.6l-.2.4-.2.4h.1v0h-.1a.9.9,0,0,1-.3.6l-.2.2-.2.3h-.3a1.8,1.8,0,0,1-1.6.1c-.7-.2-1.1-.6-1.1-1.1a.6.6,0,0,0-.1-.4v-3.3c0-.3.1-1.4.1-3.3s.1-2.2.1-3.1a117.4,117.4,0,0,1-13,7.9,122.9,122.9,0,0,1-20.2,8.3,86.9,86.9,0,0,1-21.2,4.1c-5.3.3-9.3-1.4-12.1-5s-3-6.4-2.7-11.3a21.8,21.8,0,0,1,3.3-10.9,10.3,10.3,0,0,1,3.2-3.6,6.1,6.1,0,0,1,3.4-1.2h1.1a10.3,10.3,0,0,1,3,.8,3.4,3.4,0,0,1,1.9,2.2,3.3,3.3,0,0,1-.2,2.6,5,5,0,0,1-1.5,1.8,26,26,0,0,1-3.6,3,11.1,11.1,0,0,1-3,1.6l-.9.3-2.2.4a17.3,17.3,0,0,0-.5,3.1c-.3,3.7.4,6.6,2,8.8s4.6,3.4,8.5,3.3a80.1,80.1,0,0,0,20.2-4,124.3,124.3,0,0,0,19.7-8,110.1,110.1,0,0,0,14.9-9.4c0-2.6.1-5.2.1-7.9a1.8,1.8,0,0,1,.6-1.3,2,2,0,0,1,1.4-.6,1.6,1.6,0,0,1,1.4.5,2.1,2.1,0,0,1,.7,1.4h0l-.4,11.6v1.7a107.4,107.4,0,0,1,7.4-12.2,15.5,15.5,0,0,1,4-3.9,3.4,3.4,0,0,1,2.5-.8,3.1,3.1,0,0,1,2.6,1.5c.8,1.2,1.2,3.5,1.2,6.8v2.2a18.3,18.3,0,0,1-.2,1.9c2.8-4,4.9-6.8,6.4-8.6a19.8,19.8,0,0,1,4.1-4.1c1.8-1.4,3.2-2.2,4.3-2.3a4.3,4.3,0,0,1,2.6.6,4.2,4.2,0,0,1,1.5,2.4,19.5,19.5,0,0,1,.4,6.8c-.1,4.1.6,7.1,2.1,8.8s4.5,2.7,8.5,2.5,9-1.4,15.2-3.6c0-1.3,0-2.6-.1-3.9a130.4,130.4,0,1,0,0,8.2A55.8,55.8,0,0,1,265.3,157.2ZM194.4,95.5a2.8,2.8,0,0,1,1.4-1.8,2.7,2.7,0,0,1,1.7-.3,3.5,3.5,0,0,1,1.8,2c.1.3.3.5.3.8a9.1,9.1,0,0,1,.6,2.5,22.9,22.9,0,0,1,0,3.7,12.3,12.3,0,0,1-.5,3.5,3.3,3.3,0,0,1-1.2,2.1.6.6,0,0,1-.9-.3q-.2-.2,0-.9V105a9.7,9.7,0,0,0-.3-2.3,6.7,6.7,0,0,0-.9-2.6,4.7,4.7,0,0,0-.9-1.2,3.6,3.6,0,0,1-.8-1.2A2.8,2.8,0,0,1,194.4,95.5Zm-30.1,90.6a2,2,0,0,1-1.4.6h-.4q-10.6-1.8-30.3,3.3c-3.3.9-7.4,2-12.4,3.6l-3.7,1.1-1.1.3h-.8a2.3,2.3,0,0,1-1.2-.5,2.8,2.8,0,0,1-.5-1.1,2,2,0,0,1,0-1.1,1.8,1.8,0,0,1,.9-1c4.4-2.5,8.1-8.8,11.2-18.6,2.2-7.3,4.3-17.5,6.1-30.4.2-1.2.6-4.5,1.3-9.7s1.3-9,1.6-11.5l-.2.2-.3.2h0c-1.7,1.4-3.4,2.6-5,3.7a64.5,64.5,0,0,1-11.1,6.2,32,32,0,0,1-9.3,2.4,10.7,10.7,0,0,1-.8,3.6c-1.3,2.8-3.8,5-7.7,6.4h-.5a9,9,0,0,1-4.7-.9,7.7,7.7,0,0,1-3.1-2.8,14.1,14.1,0,0,1-1.7-7.8,7.6,7.6,0,0,1,.1-1.5L84.9,135c-4.3,4.2-8.1,8.1-11.2,11.6l-1.4,1.6-1.4,1.7a17.8,17.8,0,0,1,.3,2c.1.9.2,1.5.3,2,1.4,10.2,1.6,17.5.6,21.8s-2.1,5.5-4.1,6.7-4.9,1.2-8.1-.4a10.1,10.1,0,0,1-5.8-7c-.6-2.6-.1-5.7,1.4-9.3s5.7-10.5,11.1-17c-1.5-8.1-2.9-14.6-4.3-19.5-1.4,3.9-3.6,6.6-6.8,8.1a6.5,6.5,0,0,1-6.6,0c-2-1.2-3.2-3.3-3.4-6.3a9,9,0,0,1,2.6-7.1,15.4,15.4,0,0,1,5.7-3.8l1.5-.5a23.4,23.4,0,0,1,6.5-1.3,2.1,2.1,0,0,1,1.3.2,1.9,1.9,0,0,1,.8,1l.2.5c.1.5.5,1.7,1,3.8s1.3,5.1,2.3,9.1,1.8,8,2.5,11.9l.5-.5.4-.4c3.2-3.6,7-7.4,11.3-11.7l8.2-7.8a24.1,24.1,0,0,1,.8-2.5,1.6,1.6,0,0,1,1-1.1h.1a1.5,1.5,0,0,1,1.3,0,1.5,1.5,0,0,1,1,.7,5.4,5.4,0,0,1,2.2-1.2h.1c2-.6,4.2.2,6.3,2.3a15.1,15.1,0,0,1,4.2,6.5c.1.1.1.2.1.4v.3a27.4,27.4,0,0,0,8.1-2.2,62.2,62.2,0,0,0,10.2-5.8,78.5,78.5,0,0,0,8.9-7.1v-.3a41.4,41.4,0,0,1,2.5-9,9.8,9.8,0,0,1,2-2.9,4,4,0,0,1,2.5-.9h1a8.3,8.3,0,0,1,3.1,1.2,3.9,3.9,0,0,1,1.6,2.8c.2,1.5-.6,3.3-2.3,5.4a60.4,60.4,0,0,1-7,6.5c-.4,2-.7,4.4-1.1,7.1s-.8,5.8-1.3,9.5l-1.2,8.7c-2,13.5-4.1,23.9-6.3,31.1a54.9,54.9,0,0,1-6.9,15.1l9.8-2.8c13.7-3.5,24.3-4.7,32-3.3a2.4,2.4,0,0,1,1.1.6,2.1,2.1,0,0,1,.5,1.3A1.9,1.9,0,0,1,164.3,186.1Z"/>
  </g>
</svg>
